# Blender v2.78 (sub 0) OBJ File: 'cave_entrance.blend'
# www.blender.org
mtllib cave_entrance.mtl
o cave_entrance_Cube.040
v 8.232473 -3.295942 -1.037819
v 13.433872 -3.295942 -1.037819
v 13.433872 -3.295942 1.064897
v 8.232473 -3.295942 1.064897
v 8.232473 3.295942 -1.037819
v 13.433872 3.295942 -1.037819
v 13.433872 3.295942 1.064897
v 8.232473 3.295942 1.064897
v 3.077653 13.585940 -1.055374
v 8.279051 13.585940 -1.055374
v 8.279051 13.585940 0.596137
v 3.077654 13.585940 0.596137
v 10.989828 14.172961 -4.659067
v 10.263077 13.585940 0.592494
v 10.057675 15.978172 -4.659067
v 9.330924 15.391153 0.592494
v 8.255965 13.585940 -4.994421
v 8.255965 13.585940 0.592494
v 8.982716 15.978172 -4.659067
v 8.255965 15.391153 0.592494
v 16.315155 3.897343 -4.659067
v 15.588404 3.310323 0.592494
v 13.412745 3.310323 -4.994421
v 13.412745 3.310323 0.592494
v 16.315155 -2.627671 -4.659067
v 15.588404 -3.214691 0.592494
v 13.412745 -3.214691 -4.994421
v 13.412745 -3.214691 0.592494
v 8.232473 -3.295942 -2.367105
v 13.433872 -3.295942 -2.367106
v 8.232473 3.295942 -2.367105
v 13.433872 3.295942 -2.367106
v 3.077653 13.585940 -2.354564
v 8.279051 13.585940 -2.354565
v 8.232473 -3.410152 -4.116441
v 8.232473 3.181731 -4.116441
v 3.077653 13.594989 -4.103900
v 4.614902 14.360928 -3.641807
v 4.614902 14.360928 -0.760120
v 9.771681 3.310476 -3.641807
v 9.771681 3.310476 -0.760120
v 9.771681 -3.706560 -3.641807
v 9.771681 -3.706560 -0.760120
v 10.263077 13.585940 -0.157231
v 9.330924 15.391153 -0.157231
v 8.255965 15.391153 -0.157231
v 15.588404 3.310323 -0.157231
v 15.588404 -3.214691 -0.157231
v 8.982716 15.978172 -0.599936
v 10.989828 14.172961 -0.599936
v 10.057675 15.978172 -0.599936
v 16.315155 3.897343 -0.599936
v 16.315155 -2.627672 -0.599936
v -8.232473 -3.295942 -1.037819
v -13.433872 -3.295942 -1.037819
v -13.433872 -3.295942 1.064897
v -8.232473 -3.295942 1.064897
v -8.232473 3.295942 -1.037819
v -13.433872 3.295942 -1.037819
v -13.433872 3.295942 1.064897
v -8.232473 3.295942 1.064897
v -3.077653 13.585940 -1.055374
v -8.279051 13.585940 -1.055374
v -8.279051 13.585940 0.596137
v -3.077654 13.585940 0.596137
v -10.989828 14.172961 -4.659067
v -10.263077 13.585940 0.592494
v -10.057675 15.978172 -4.659067
v -9.330924 15.391153 0.592494
v -8.255965 13.585940 -4.994421
v -8.255965 13.585940 0.592494
v -8.982716 15.978172 -4.659067
v -8.255965 15.391153 0.592494
v -16.315155 3.897343 -4.659067
v -15.588404 3.310323 0.592494
v -13.412745 3.310323 -4.994421
v -13.412745 3.310323 0.592494
v -16.315155 -2.627671 -4.659067
v -15.588404 -3.214691 0.592494
v -13.412745 -3.214691 -4.994421
v -13.412745 -3.214691 0.592494
v -8.232473 -3.295942 -2.367105
v -13.433872 -3.295942 -2.367106
v -8.232473 3.295942 -2.367105
v -13.433872 3.295942 -2.367106
v -3.077653 13.585940 -2.354564
v -8.279051 13.585940 -2.354565
v -8.232473 -3.410152 -4.116441
v -8.232473 3.181731 -4.116441
v -3.077653 13.594989 -4.103900
v -4.614902 14.360928 -3.641807
v -4.614902 14.360928 -0.760120
v -9.771681 3.310476 -3.641807
v -9.771681 3.310476 -0.760120
v -9.771681 -3.706560 -3.641807
v -9.771681 -3.706560 -0.760120
v -10.263077 13.585940 -0.157231
v -9.330924 15.391153 -0.157231
v -8.255965 15.391153 -0.157231
v -15.588404 3.310323 -0.157231
v -15.588404 -3.214691 -0.157231
v -8.982716 15.978172 -0.599936
v -10.989828 14.172961 -0.599936
v -10.057675 15.978172 -0.599936
v -16.315155 3.897343 -0.599936
v -16.315155 -2.627672 -0.599936
vn -0.0000 0.0000 -1.0000
vn 1.0000 0.0000 0.0000
vn 0.0000 0.0000 1.0000
vn -1.0000 0.0000 0.0000
vn -0.8941 -0.4479 -0.0000
vn 0.0000 1.0000 0.0000
vn 0.0000 0.0455 0.9990
vn 0.8941 0.4479 0.0000
vn -0.0000 -0.0017 -1.0000
vn -0.8938 -0.4485 0.0000
vn 0.8885 0.4588 0.0000
vn 0.8879 0.4601 0.0000
vn 0.0000 -0.0012 1.0000
vn -0.8951 -0.4457 0.0134
vn 0.9062 0.4229 0.0000
vn 0.0000 0.6021 0.7984
vn 0.3866 0.2003 0.9002
vn 0.5202 0.0000 0.8540
vn 0.3870 0.1998 0.9002
vn 0.8941 -0.4479 0.0000
vn -0.8941 0.4479 0.0000
vn 0.8938 -0.4485 0.0000
vn -0.8885 0.4588 0.0000
vn -0.8879 0.4601 0.0000
vn 0.8951 -0.4457 0.0134
vn -0.9062 0.4229 0.0000
vn -0.3866 0.2003 0.9002
vn -0.5202 0.0000 0.8540
vn -0.3870 0.1998 0.9002
vn 0.0000 -1.0000 0.0000
g cave_entrance_Cube.040_Material
usemtl Material
s off
f 5//1 6//1 2//1 1//1
f 6//2 7//2 3//2 2//2
f 7//3 8//3 4//3 3//3
f 8//4 5//4 1//4 4//4
f 5//5 8//5 12//5 9//5
f 12//6 11//6 10//6 9//6
f 8//7 7//7 11//7 12//7
f 7//8 6//8 10//8 11//8
f 6//9 5//9 9//9 10//9
f 18//10 17//10 23//10 24//10
f 49//6 51//6 15//6 19//6
f 19//6 72//6 102//6 49//6
f 18//3 14//3 16//3 20//3
f 50//11 13//11 15//11 51//11
f 20//3 73//3 71//3 18//3
f 46//6 99//6 73//6 20//6
f 24//4 23//4 27//4 28//4
f 14//3 18//3 24//3 22//3
f 44//12 14//12 22//12 47//12
f 22//3 24//3 28//3 26//3
f 47//2 22//2 26//2 48//2
f 31//3 29//3 30//3 32//3
f 32//13 34//13 33//13 31//13
f 31//14 33//14 37//14 36//14
f 29//4 31//4 36//4 35//4
f 39//15 41//15 40//15 38//15
f 41//2 43//2 42//2 40//2
f 20//6 16//6 45//6 46//6
f 14//11 44//11 45//11 16//11
f 49//16 102//16 99//16 46//16
f 50//17 44//17 47//17 52//17
f 52//18 47//18 48//18 53//18
f 46//16 45//16 51//16 49//16
f 44//19 50//19 51//19 45//19
f 13//12 50//12 52//12 21//12
f 21//2 52//2 53//2 25//2
f 58//1 54//1 55//1 59//1
f 59//4 55//4 56//4 60//4
f 60//3 56//3 57//3 61//3
f 61//2 57//2 54//2 58//2
f 58//20 62//20 65//20 61//20
f 65//6 62//6 63//6 64//6
f 61//7 65//7 64//7 60//7
f 60//21 64//21 63//21 59//21
f 59//9 63//9 62//9 58//9
f 71//22 77//22 76//22 70//22
f 102//6 72//6 68//6 104//6
f 71//3 73//3 69//3 67//3
f 103//23 104//23 68//23 66//23
f 77//2 81//2 80//2 76//2
f 67//3 75//3 77//3 71//3
f 97//24 100//24 75//24 67//24
f 75//3 79//3 81//3 77//3
f 100//4 101//4 79//4 75//4
f 84//3 85//3 83//3 82//3
f 85//13 84//13 86//13 87//13
f 84//25 89//25 90//25 86//25
f 82//2 88//2 89//2 84//2
f 92//26 91//26 93//26 94//26
f 94//4 93//4 95//4 96//4
f 73//6 99//6 98//6 69//6
f 67//23 69//23 98//23 97//23
f 103//27 105//27 100//27 97//27
f 105//28 106//28 101//28 100//28
f 99//16 102//16 104//16 98//16
f 97//29 98//29 104//29 103//29
f 66//24 74//24 105//24 103//24
f 74//4 78//4 106//4 105//4
f 18//30 71//30 70//30 17//30
